<svg width="21" height="21" viewBox="0 0 21 21" fill="none" xmlns="http://www.w3.org/2000/svg">
<path d="M10.1672 21C11.8273 21 13.2161 19.8165 13.535 18.25H6.79932C7.11839 19.8165 8.50716 21 10.1672 21Z" fill="#3D3D3D"/>
<path d="M17.8103 16.9606L17.8103 16.9604C17.8952 16.5512 17.7518 16.1452 17.4315 15.8757C16.1074 14.7657 15.2979 13.1815 15.1262 11.485C11.5252 11.2487 8.66718 8.24399 8.66718 4.58337C8.66718 3.79464 8.80351 3.03884 9.04894 2.33453C5.8359 2.39752 3.25057 5.02173 3.25057 8.24998V10.8056C3.25057 12.7669 2.39098 14.6184 0.885364 15.8918C0.566744 16.1645 0.424168 16.5982 0.539918 17.0266L17.8103 16.9606ZM17.8103 16.9606C17.708 17.4544 17.2108 17.8334 16.6243 17.8334H1.70556C1.1464 17.8334 0.665398 17.4895 0.539969 17.0268L17.8103 16.9606Z" fill="#3D3D3D" stroke="#3D3D3D"/>
<path d="M20.0977 4.50008C20.0977 6.98537 18.083 9 15.5976 9C13.1123 9 11.0977 6.98537 11.0977 4.50008C11.0977 2.0148 13.1123 0 15.5976 0C18.083 0 20.0977 2.0148 20.0977 4.50008Z" fill="#E42C64"/>
</svg>
