<svg width="23" height="22" viewBox="0 0 23 22" fill="none" xmlns="http://www.w3.org/2000/svg">
<path fill-rule="evenodd" clip-rule="evenodd" d="M10.5834 3.66668C7.03955 3.66668 4.16671 6.53952 4.16671 10.0833C4.16671 13.6272 7.03955 16.5 10.5834 16.5C14.1272 16.5 17 13.6272 17 10.0833C17 6.53952 14.1272 3.66668 10.5834 3.66668ZM2.33337 10.0833C2.33337 5.52699 6.02702 1.83334 10.5834 1.83334C15.1397 1.83334 18.8334 5.52699 18.8334 10.0833C18.8334 14.6397 15.1397 18.3333 10.5834 18.3333C6.02702 18.3333 2.33337 14.6397 2.33337 10.0833Z" fill="#333333"/>
<path fill-rule="evenodd" clip-rule="evenodd" d="M15.1143 14.6143C15.4723 14.2563 16.0527 14.2563 16.4107 14.6143L20.3982 18.6018C20.7562 18.9598 20.7562 19.5402 20.3982 19.8982C20.0402 20.2562 19.4598 20.2562 19.1018 19.8982L15.1143 15.9107C14.7563 15.5527 14.7563 14.9723 15.1143 14.6143Z" fill="#333333"/>
</svg>
